<svg width="173" height="114" viewBox="0 0 173 114" fill="none" xmlns="http://www.w3.org/2000/svg">
<g filter="url(#filter0_ii)">
<path d="M0.894791 95.3955C-0.619781 98.3428 0.536164 101.975 3.5555 103.34C19.7689 110.672 37.435 114.317 55.276 113.978C75.1196 113.602 94.56 108.31 111.856 98.5752C129.152 88.8408 143.764 74.9685 154.382 58.2006C163.929 43.1249 169.979 26.1319 172.125 8.46756C172.524 5.17801 170.019 2.30536 166.714 2.07076L142.774 0.371651C139.469 0.137054 136.621 2.63152 136.151 5.91174C134.472 17.6358 130.328 28.896 123.967 38.9404C116.535 50.6779 106.306 60.3886 94.1992 67.2027C82.092 74.0167 68.4837 77.7214 54.5932 77.9849C42.7064 78.2104 30.9305 75.9099 20.0368 71.2621C16.9889 69.9617 13.3789 71.1018 11.8643 74.0491L0.894791 95.3955Z" fill="url(#paint0_radial)" fill-opacity="0.25"/>
</g>
<defs>
<filter id="filter0_ii" x="-0.769165" y="0.356354" width="172.936" height="114.644" filterUnits="userSpaceOnUse" color-interpolation-filters="sRGB">
<feFlood flood-opacity="0" result="BackgroundImageFix"/>
<feBlend mode="normal" in="SourceGraphic" in2="BackgroundImageFix" result="shape"/>
<feColorMatrix in="SourceAlpha" type="matrix" values="0 0 0 0 0 0 0 0 0 0 0 0 0 0 0 0 0 0 127 0" result="hardAlpha"/>
<feOffset/>
<feGaussianBlur stdDeviation="10"/>
<feComposite in2="hardAlpha" operator="arithmetic" k2="-1" k3="1"/>
<feColorMatrix type="matrix" values="0 0 0 0 0.4125 0 0 0 0 0.4125 0 0 0 0 0.4125 0 0 0 0.2 0"/>
<feBlend mode="normal" in2="shape" result="effect1_innerShadow"/>
<feColorMatrix in="SourceAlpha" type="matrix" values="0 0 0 0 0 0 0 0 0 0 0 0 0 0 0 0 0 0 127 0" result="hardAlpha"/>
<feOffset dx="-1" dy="1"/>
<feGaussianBlur stdDeviation="0.5"/>
<feComposite in2="hardAlpha" operator="arithmetic" k2="-1" k3="1"/>
<feColorMatrix type="matrix" values="0 0 0 0 1 0 0 0 0 1 0 0 0 0 1 0 0 0 0.5 0"/>
<feBlend mode="normal" in2="effect1_innerShadow" result="effect2_innerShadow"/>
</filter>
<radialGradient id="paint0_radial" cx="0" cy="0" r="1" gradientUnits="userSpaceOnUse" gradientTransform="translate(52.6238 -5.62381) rotate(90) scale(119.624)">
<stop offset="0.828125" stop-color="#A6A6A6" stop-opacity="0.69"/>
<stop offset="0.921875" stop-color="#CBCBCB" stop-opacity="0.2"/>
</radialGradient>
</defs>
</svg>
