<svg width="114" height="45" viewBox="0 0 114 45" fill="none" xmlns="http://www.w3.org/2000/svg">
<g filter="url(#filter0_ii)">
<path d="M112.504 20.4242C114.117 17.5297 113.085 13.8609 110.113 12.3942C93.5705 4.22889 75.3415 -0.0246085 56.8397 0.000107069C38.3379 0.0248227 20.1203 4.32701 3.59963 12.5365C0.632114 14.0111 -0.390543 17.6827 1.23054 20.5728L12.9715 41.5049C14.5926 44.395 18.2418 45.4025 21.2402 43.9918C32.3703 38.7554 44.5386 36.0166 56.8878 36.0001C69.237 35.9836 81.4125 38.6899 92.5566 43.8966C95.5588 45.2992 99.2053 44.2819 100.819 41.3875L112.504 20.4242Z" fill="url(#paint0_radial)" fill-opacity="0.8"/>
</g>
<defs>
<filter id="filter0_ii" x="-0.536438" y="0" width="113.799" height="45.623" filterUnits="userSpaceOnUse" color-interpolation-filters="sRGB">
<feFlood flood-opacity="0" result="BackgroundImageFix"/>
<feBlend mode="normal" in="SourceGraphic" in2="BackgroundImageFix" result="shape"/>
<feColorMatrix in="SourceAlpha" type="matrix" values="0 0 0 0 0 0 0 0 0 0 0 0 0 0 0 0 0 0 127 0" result="hardAlpha"/>
<feOffset/>
<feGaussianBlur stdDeviation="10"/>
<feComposite in2="hardAlpha" operator="arithmetic" k2="-1" k3="1"/>
<feColorMatrix type="matrix" values="0 0 0 0 1 0 0 0 0 0.69 0 0 0 0 0.225 0 0 0 0.9 0"/>
<feBlend mode="normal" in2="shape" result="effect1_innerShadow"/>
<feColorMatrix in="SourceAlpha" type="matrix" values="0 0 0 0 0 0 0 0 0 0 0 0 0 0 0 0 0 0 127 0" result="hardAlpha"/>
<feOffset dx="-1" dy="1"/>
<feGaussianBlur stdDeviation="0.5"/>
<feComposite in2="hardAlpha" operator="arithmetic" k2="-1" k3="1"/>
<feColorMatrix type="matrix" values="0 0 0 0 1 0 0 0 0 1 0 0 0 0 1 0 0 0 0.5 0"/>
<feBlend mode="normal" in2="effect1_innerShadow" result="effect2_innerShadow"/>
</filter>
<radialGradient id="paint0_radial" cx="0" cy="0" r="1" gradientUnits="userSpaceOnUse" gradientTransform="translate(56.6238 120.376) rotate(90) scale(119.624)">
<stop offset="0.8125" stop-color="#FFB800" stop-opacity="0.7"/>
<stop offset="1" stop-color="#FFEF99" stop-opacity="0.4"/>
</radialGradient>
</defs>
</svg>
